<?xml version="1.0" encoding="utf-8"?>
<!-- Generator: Adobe Illustrator 24.1.1, SVG Export Plug-In . SVG Version: 6.00 Build 0)  -->
<svg version="1.1" id="Layer_1" xmlns="http://www.w3.org/2000/svg" xmlns:xlink="http://www.w3.org/1999/xlink" x="0px" y="0px"
	 viewBox="0 0 512 512" style="enable-background:new 0 0 512 512;" xml:space="preserve">
<style type="text/css">
	.st0{fill:#FFFFFF;}
</style>
<g>
	<g>
		<path class="st0" d="M342,62.6"/>
		<path class="st0" d="M342,62.6L178.2,1.2c-2.4-0.8-4.9-0.8-7.4,0L7.1,62.6c-3.9,1.4-6.6,5.3-6.6,9.6v131.6
			c0,186.7,170.1,226,171.8,226.4c0.8,0.2,1.4,0.2,2.3,0.2s1.4,0,2.3-0.2c0.4,0,8.4-1.9,20.7-6.5c-3-7.4-5.6-15.1-7.5-23
			c-5.2,1.8-9.6,3-12,3.5v0c-1.4,0.4-2.5,0.4-3.4,0.4c-0.9,0-2,0-3.4-0.4v0c-3.3-0.6-10.6-2.8-18.3-5.8l-6.4-2.5l0.1-0.1
			C103.9,378.2,20.4,328,20.4,205.6V93.5c0-6.2,3.8-11.7,9.5-13.8l139.6-52.4c3.3-1.1,6.7-1.1,10.1,0l0.2,0.1l139.4,52.3
			c5.7,2.1,9.5,7.7,9.5,13.8v93.8c6.5-1.1,13.1-1.9,19.8-2.3V72.2C348.6,67.9,345.9,64,342,62.6z"/>
		<g>
			<path class="st0" d="M316.7,189.9V93.5c0-1.1-0.7-2.2-1.7-2.6L175.7,38.6c-0.4-0.1-0.8-0.2-1.1-0.2v177.1h85.5
				C277,203.8,296.2,195,316.7,189.9z"/>
			<path class="st0" d="M174.6,215.5h-142c4.6,114,88.1,157.9,124.6,171.6l4.4,1.6c6.1,2.2,10.4,3.3,11.7,3.6h0.2l0.7,0.2
				c0.1,0,0.3,0,0.5,0l0,0L174.6,215.5L174.6,215.5z"/>
		</g>
		<path class="st0" d="M358.8,206.1c-84.2,0-152.7,68.5-152.7,152.7s68.5,152.7,152.7,152.7S511.5,443,511.5,358.8
			S443,206.1,358.8,206.1L358.8,206.1z M435.2,321.4L353,415.4c-4.3,4.9-10.4,7.8-16.9,8c-0.3,0-0.5,0-0.8,0
			c-6.2,0-12.2-2.5-16.6-6.9l-47-47c-9.2-9.2-9.2-24,0-33.2c9.2-9.2,24-9.2,33.2,0l29.2,29.2l65.7-75.1c8.5-9.7,23.4-10.8,33.1-2.2
			C442.7,296.8,443.7,311.7,435.2,321.4L435.2,321.4z"/>
	</g>
</g>
</svg>
