<?xml version="1.0" encoding="utf-8"?>
<!-- Generator: Adobe Illustrator 24.1.1, SVG Export Plug-In . SVG Version: 6.00 Build 0)  -->
<svg version="1.1" id="Layer_1" xmlns="http://www.w3.org/2000/svg" xmlns:xlink="http://www.w3.org/1999/xlink" x="0px" y="0px"
	 viewBox="0 0 512 512" style="enable-background:new 0 0 512 512;" xml:space="preserve">
<style type="text/css">
	.st0{fill:#FFFFFF;}
</style>
<g>
	<g>
		<g>
			<path class="st0" d="M432.2,474.6V336.8h-76.8v137.8h-52.9V223.3h-76.8v251.4h-50.1V74.7H98.9v399.9H55.7V74.7H18.8v436.8h474.5
				v-36.9H432.2z"/>
		</g>
	</g>
	<g>
		<g>
			<path class="st0" d="M389.9,91l87.2-41.8C458.5,20,425.9,0.5,388.7,0.5c-30.9,0-58.6,13.4-77.7,34.6L389.9,91z"/>
			<path class="st0" d="M296.9,54.9c-8.1,14.9-12.8,32-12.8,50.1c0,24.7,8.6,47.4,23,65.3l62.9-63.7L296.9,54.9z"/>
			<path class="st0" d="M395.8,115.1l-71.5,72.3c17.8,13.9,40.1,22.2,64.4,22.2c57.7,0,104.5-46.8,104.5-104.5c0-11.9-2-23.3-5.7-34
				L395.8,115.1z"/>
		</g>
	</g>
</g>
</svg>
