<?xml version="1.0" encoding="utf-8"?>
<!-- Generator: Adobe Illustrator 24.1.1, SVG Export Plug-In . SVG Version: 6.00 Build 0)  -->
<svg version="1.1" id="Layer_1" xmlns="http://www.w3.org/2000/svg" xmlns:xlink="http://www.w3.org/1999/xlink" x="0px" y="0px"
	 viewBox="0 0 512 512" style="enable-background:new 0 0 512 512;" xml:space="preserve">
<style type="text/css">
	.st0{fill:#FFFFFF;}
</style>
<g>
	<g>
		<path class="st0" d="M15.4,480.9h30c8.3,0,15-6.7,15-15V301.2H15.4c-8.3,0-15,6.7-15,15v149.8C0.4,474.2,7.1,480.9,15.4,480.9
			L15.4,480.9z"/>
		<path class="st0" d="M270.8,488.9h3.3c50.3-0.6,98.5-14.9,141.1-40.6l83.6-58.4c14.1-9.9,16.8-28.5,7.5-41.6
			c-9.6-13.8-28.1-17.1-41.6-7.5L384.3,397c-25.8,15-57.2,18.3-85.6,8.7l-92.3-30.5c-7.8-2.4-12-11.1-9.3-18.9
			c2.4-7.5,10.2-11.7,18-9.6c0.3,0,103.7,33.5,103.7,33.5c17.4,5.2,32.9-4.6,37.7-19.2c5.1-15.9-3.6-32.6-19.2-37.7l-140.9-46.1
			c-30.8-11.2-72.3-8.9-106.1,10v167.6l117.5,26.6C229.3,486.2,250.4,488.9,270.8,488.9L270.8,488.9z"/>
		<circle class="st0" cx="136.8" cy="175.9" r="66.1"/>
		<circle class="st0" cx="199.7" cy="62" r="38.9"/>
	</g>
	<g>
		<path class="st0" d="M355.4,83c-51.2,0-92.9,41.7-92.9,92.9s41.7,92.9,92.9,92.9s92.9-41.7,92.9-92.9
			C448.3,124.7,406.6,83,355.4,83z M378.9,226.3c-3,1.5-6.2,2.7-9.5,3.6v3.9c0,7.7-6.3,14-14,14c-7.7,0-14-6.3-14-14v-3.4
			c-5.8-1.5-11.3-3.9-15.9-7.4c-6.2-4.6-7.4-13.4-2.8-19.6s13.4-7.4,19.6-2.8c5.6,4.2,16.4,4.5,24,0.7c3.1-1.5,4.7-3.4,4.7-4.3
			c0-1.7,0-1.9-1.9-2.9c-3.6-1.9-10.1-3.1-16.4-4.3c-8.3-1.6-17-3.1-24.4-7.1c-10.9-5.8-16.7-15.4-16.7-27.6
			c0-12.3,7.4-23,20.2-29.4c3-1.5,6.2-2.7,9.5-3.6v-3.8c0-7.7,6.3-14,14-14c7.7,0,14,6.3,14,14v3.4c5.8,1.5,11.3,3.9,15.9,7.4
			c6.2,4.6,7.4,13.4,2.8,19.6s-13.4,7.4-19.6,2.8c-5.6-4.2-16.4-4.5-24-0.7c-3.1,1.6-4.7,3.4-4.7,4.4c0,1.7,0,1.9,1.9,2.9
			c3.6,1.9,10.1,3.1,16.4,4.3c8.3,1.6,17,3.1,24.4,7.1c10.9,5.8,16.7,15.4,16.7,27.6C399.1,209.2,391.7,219.9,378.9,226.3z"/>
		<path class="st0" d="M355.4,56.1c-66.2,0-119.8,53.6-119.8,119.8s53.6,119.8,119.8,119.8c66.2,0,119.8-53.6,119.8-119.8
			C475.2,109.8,421.6,56.1,355.4,56.1z M355.4,279.2c-57,0-103.3-46.3-103.3-103.3S298.5,72.6,355.4,72.6S458.7,119,458.7,175.9
			C458.7,232.9,412.4,279.2,355.4,279.2z"/>
	</g>
</g>
</svg>
