<?xml version="1.0" encoding="utf-8"?>
<!-- Generator: Adobe Illustrator 24.1.1, SVG Export Plug-In . SVG Version: 6.00 Build 0)  -->
<svg version="1.1" id="Layer_1" xmlns="http://www.w3.org/2000/svg" xmlns:xlink="http://www.w3.org/1999/xlink" x="0px" y="0px"
	 viewBox="0 0 512 512" style="enable-background:new 0 0 512 512;" xml:space="preserve">
<style type="text/css">
	.st0{fill:#FFFFFF;}
</style>
<g>
	<g>
		<path class="st0" d="M316,232.7c0,24.8-20.1,45-45,45s-45-20.1-45-45s20.1-45,45-45S316,207.9,316,232.7L316,232.7z"/>
		<path class="st0" d="M466.9,7.9H75.1c-24.8,0-45,20.2-45,45v30h-15c-8.3,0-15,6.7-15,15v29.2h70.2c8.3,0,15,6.7,15,15
			s-6.7,15-15,15H0.2v30.7c0,8.3,6.7,15,15,15h15v14h40.3c8.3,0,15,6.7,15,15s-6.7,15-15,15H30.2v16h-15c-8.3,0-15,6.7-15,15v28.7
			h70.2c8.3,0,15,6.7,15,15s-6.7,15-15,15H0.2v31.2c0,8.3,6.7,15,15,15h15v30c0,24.8,20.2,45,45,45h391.7c24.8,0,45-20.2,45-45V52.9
			C511.8,28.1,491.6,7.9,466.9,7.9z M345.9,232.7c0,15.3-4.6,29.4-12.5,41.3l68,68.1c5.9,5.9,5.9,15.3,0,21.2
			c-2.9,2.9-6.8,4.4-10.6,4.4s-7.7-1.5-10.6-4.4l-68-68c-11.9,7.9-26,12.5-41.3,12.5s-29.4-4.6-41.3-12.5l-68.1,68
			c-2.9,2.9-6.8,4.4-10.6,4.4s-7.7-1.5-10.6-4.4c-5.9-5.9-5.9-15.3,0-21.2l68.1-68c-7.9-11.9-12.5-26-12.5-41.3s4.6-29.4,12.5-41.3
			l-68.1-68.1c-5.9-5.8-5.9-15.3,0-21.2c5.9-5.9,15.3-5.9,21.2,0l68.1,68.1c11.9-7.9,26-12.5,41.3-12.5s29.4,4.6,41.3,12.5
			l68.1-68.1c5.9-5.9,15.3-5.9,21.2,0c5.9,5.8,5.9,15.3,0,21.2l-68,68.1C341.3,203.3,345.9,217.5,345.9,232.7z M450.9,262.7
			c0,8.3-6.7,15-15,15s-15-6.7-15-15v-60c0-8.3,6.7-15,15-15s15,6.7,15,15V262.7z"/>
		<g>
			<path class="st0" d="M214.1,504.1h-64.4c-9.3,0-16.8-7.5-16.8-16.8v-17.9h98.1v17.9C230.9,496.6,223.4,504.1,214.1,504.1z"/>
			<path class="st0" d="M390.5,504.1H326c-9.3,0-16.8-7.5-16.8-16.8v-17.9h98.1v17.9C407.3,496.6,399.8,504.1,390.5,504.1z"/>
		</g>
	</g>
</g>
</svg>
