<?xml version="1.0" encoding="utf-8"?>
<!-- Generator: Adobe Illustrator 24.1.1, SVG Export Plug-In . SVG Version: 6.00 Build 0)  -->
<svg version="1.1" id="Layer_1" xmlns="http://www.w3.org/2000/svg" xmlns:xlink="http://www.w3.org/1999/xlink" x="0px" y="0px"
	 viewBox="0 0 512 512" style="enable-background:new 0 0 512 512;" xml:space="preserve">
<style type="text/css">
	.st0{fill:#FFFFFF;}
</style>
<g>
	<g>
		<g>
			<path class="st0" d="M400.2,154.5c-9.2-9-19.2-17.2-30-24.4l-24.9,25.7L400.2,154.5z"/>
			<path class="st0" d="M346.4,273.8c1.8,0,3.6,0.1,5.4,0.1c17.3,0.4,22.5,8.4,24.1,13.1c1.6,4.8,2.2,14.5-11.9,25.7L200.7,441.3
				c-7.4,5.9-13,8.5-18,8.5c-4.6,0-8.6-2.3-10.9-6.1c-4.2-7.1-0.5-16,3.7-23.7l55.3-101.4h-38.5c-17.1,0-22.9-6.9-24.8-12.6
				s-1.2-14.7,12.7-24.7l75.6-54.7h-63.5c-12.2,0-21.9-4.8-26.7-13.2s-4-19.3,2.2-29.7L218.5,98C120.9,115.1,46.7,200.3,46.7,302.7
				c0,114.8,93,207.8,207.8,207.8s207.8-93,207.8-207.8c0-39.4-11-76.3-30-107.7L346.4,273.8z"/>
		</g>
		<path class="st0" d="M448.6,11.1"/>
		<path class="st0" d="M448.6,1.5H319.5c-17.6,0-39.1,12.3-48.1,27.4l-94.7,159.9c-8.9,15.1-1.9,27.4,15.6,27.4h95.3l-101.3,73.4
			c-14.3,10.3-11.6,18.7,6,18.7h55.8L184.6,425c-5.2,9.5-5.5,14.5-1.9,14.5c2.3,0,6.3-2,11.6-6.3l163.3-128.6
			c13.8-10.9,11.1-20-6-20.4c-17.1-0.4-31-0.7-31-0.7l107.3-98.3c12.7-11.6,9.4-20.8-7.3-20.8c-0.4,0-0.7,0-1.1,0l-98.9,2.2
			L458.3,24.3C470.6,11.7,466.2,1.5,448.6,1.5z"/>
	</g>
</g>
</svg>
